<svg width="60" height="60" viewBox="0 0 60 60" fill="none" xmlns="http://www.w3.org/2000/svg">
<circle cx="30" cy="30" r="30" transform="rotate(90 30 30)" fill="#FFC7C7"/>
<path fill-rule="evenodd" clip-rule="evenodd" d="M45.8851 21.6151C46.0015 21.7312 46.0938 21.8692 46.1569 22.021C46.2199 22.1729 46.2523 22.3357 46.2523 22.5001C46.2523 22.6645 46.2199 22.8273 46.1569 22.9792C46.0938 23.131 46.0015 23.269 45.8851 23.3851L30.8851 38.3851C30.769 38.5015 30.631 38.5939 30.4792 38.6569C30.3273 38.7199 30.1645 38.7523 30.0001 38.7523C29.8357 38.7523 29.6729 38.7199 29.521 38.6569C29.3691 38.5939 29.2312 38.5015 29.1151 38.3851L14.1151 23.3851C13.8804 23.1504 13.7485 22.832 13.7485 22.5001C13.7485 22.1682 13.8804 21.8498 14.1151 21.6151C14.3498 21.3804 14.6681 21.2485 15.0001 21.2485C15.332 21.2485 15.6504 21.3804 15.8851 21.6151L30.0001 35.7326L44.1151 21.6151C44.2312 21.4987 44.3691 21.4063 44.521 21.3433C44.6729 21.2803 44.8357 21.2479 45.0001 21.2479C45.1645 21.2479 45.3273 21.2803 45.4792 21.3433C45.631 21.4063 45.769 21.4987 45.8851 21.6151Z" fill="#CE1532"/>
</svg>
