<svg width="60" height="60" viewBox="0 0 60 60" fill="none" xmlns="http://www.w3.org/2000/svg">
<circle cx="30" cy="30" r="30" fill="#FFC7C7"/>
<path fill-rule="evenodd" clip-rule="evenodd" d="M21.615 14.1149C21.7312 13.9985 21.8691 13.9062 22.021 13.8432C22.1728 13.7801 22.3356 13.7477 22.5 13.7477C22.6645 13.7477 22.8273 13.7801 22.9791 13.8432C23.131 13.9062 23.2689 13.9985 23.385 14.1149L38.385 29.1149C38.5014 29.2311 38.5938 29.369 38.6568 29.5209C38.7198 29.6727 38.7523 29.8355 38.7523 29.9999C38.7523 30.1644 38.7198 30.3272 38.6568 30.479C38.5938 30.6309 38.5014 30.7688 38.385 30.8849L23.385 45.8849C23.1503 46.1197 22.832 46.2515 22.5 46.2515C22.1681 46.2515 21.8498 46.1197 21.615 45.8849C21.3803 45.6502 21.2485 45.3319 21.2485 44.9999C21.2485 44.668 21.3803 44.3497 21.615 44.1149L35.7325 29.9999L21.615 15.8849C21.4986 15.7688 21.4063 15.6309 21.3433 15.479C21.2802 15.3272 21.2478 15.1644 21.2478 14.9999C21.2478 14.8355 21.2802 14.6727 21.3433 14.5209C21.4063 14.369 21.4986 14.2311 21.615 14.1149V14.1149Z" fill="#CE1532"/>
</svg>
