<svg width="67" height="67" viewBox="0 0 67 67" fill="none" xmlns="http://www.w3.org/2000/svg">
<path d="M32.3778 0.0176773C27.3092 0.18853 22.3881 1.48666 17.9309 3.83168C12.9879 6.4313 8.74517 10.2503 5.63637 14.8985C1.95137 20.4093 0 26.8463 0 33.4995C0 39.2263 1.4405 44.789 4.21765 49.7789C6.33652 53.5895 9.22423 56.9932 12.6596 59.7268C17.6712 63.715 23.6962 66.1739 30.0495 66.8238C35.2336 67.3531 40.4261 66.6864 45.2702 64.8707C52.1478 62.2946 58.0622 57.4437 61.9532 51.1876C65.2647 45.8644 67 39.7808 67 33.4995C67 27.7726 65.5595 22.2132 62.7823 17.22C60.8142 13.6774 58.1426 10.4446 55.0304 7.83663C50.059 3.67088 44.1078 1.06959 37.6959 0.260559C36.0108 0.0478287 34.0896 -0.040947 32.3778 0.0176773ZM35.1499 0.583832C37.5384 0.724533 39.4546 1.01096 41.5902 1.54864C48.6738 3.33253 55.007 7.47818 59.5194 13.2821C62.985 17.7393 65.2262 22.9402 66.0771 28.5079C66.1776 29.1578 66.2781 30.0205 66.3384 30.7189C66.4657 32.2332 66.4841 34.0187 66.3886 35.5765C66.1558 39.3151 65.2798 43.0135 63.8158 46.4372C61.851 51.0251 58.8612 55.1205 55.084 58.3951C49.8128 62.9679 43.2853 65.735 36.3643 66.3297C34.7663 66.467 33.0243 66.4871 31.4314 66.3883C25.9675 66.0483 20.7315 64.3733 16.0968 61.4839C13.2978 59.7402 10.7635 57.5744 8.60448 55.0836C4.2076 50.0151 1.47232 43.769 0.74705 37.1426C0.5427 35.28 0.4958 33.2934 0.611375 31.4308C0.9514 25.9669 2.6264 20.7309 5.51577 16.0961C7.26112 13.2972 9.42355 10.7629 11.9159 8.60378C16.6327 4.51173 22.3713 1.85516 28.5085 0.922188C29.6157 0.754684 30.7999 0.635757 31.9004 0.58551C32.1131 0.575462 32.3392 0.565407 32.4029 0.562057C32.6692 0.550331 34.8551 0.567085 35.1499 0.583832Z" fill="white"/>
<path d="M33.0092 2.38615C32.8652 2.39787 32.7429 2.4096 32.7396 2.41295C32.7345 2.4163 32.7128 2.51847 32.6876 2.6374C32.619 2.9858 32.5386 3.26888 32.3359 3.89365C32.0528 4.76634 31.9774 5.00251 31.9406 5.14991C31.8786 5.39781 31.8736 5.41456 31.8585 5.39949C31.8518 5.39111 31.7932 5.27051 31.7279 5.13316C31.6374 4.93551 30.3879 2.59385 30.3577 2.5637C30.3493 2.55532 29.7212 2.60892 29.686 2.62065C29.6726 2.62567 29.7179 2.71277 29.8083 2.85515C29.887 2.98077 30.3108 3.7429 30.7513 4.54691L31.5537 6.01087L31.4297 6.31739C31.2974 6.6457 31.1232 7.12308 31.1316 7.13313C31.1349 7.13648 31.2806 7.12978 31.4548 7.11805L31.7748 7.09627L31.7999 7.00247C31.8753 6.73447 32.1198 6.02259 32.5419 4.84841C33.0662 3.39115 33.1164 3.23873 33.222 2.81662C33.3107 2.4565 33.3275 2.35935 33.2957 2.3627C33.2839 2.36437 33.155 2.37442 33.0092 2.38615Z" fill="white"/>
<path d="M35.0913 2.49838C35.0913 2.7044 35.0561 3.01595 34.8149 4.97404C34.6809 6.0628 34.572 6.95893 34.572 6.96563C34.572 6.97735 35.2219 7.05943 35.232 7.04938C35.2353 7.04603 35.2454 6.92543 35.2554 6.78305C35.2722 6.56028 35.4464 5.06282 35.4681 4.96567C35.4748 4.93049 35.4933 4.93217 36.6189 5.07119C37.2487 5.14824 37.7679 5.21692 37.7729 5.22194C37.7796 5.22864 37.7244 5.70435 37.654 6.28055C37.582 6.85675 37.5267 7.33078 37.5301 7.33413C37.5384 7.34251 38.1783 7.41956 38.1867 7.41286C38.19 7.40783 38.2001 7.29728 38.2084 7.16496C38.2168 7.0343 38.3374 6.00585 38.4748 4.88359C38.6138 3.75966 38.726 2.8317 38.726 2.82165C38.726 2.80825 38.6289 2.79485 38.4212 2.78145C38.252 2.76973 38.0996 2.75968 38.0811 2.758C38.0493 2.75465 38.0476 2.76805 38.0376 2.99753C38.0259 3.26051 37.8584 4.68761 37.8366 4.71274C37.8232 4.72782 35.5603 4.45981 35.5418 4.43971C35.5351 4.43469 35.5854 3.98411 35.6524 3.44141C35.7194 2.89703 35.7713 2.4498 35.768 2.44645C35.7613 2.43808 35.2571 2.3962 35.1549 2.3962L35.0913 2.39453V2.49838Z" fill="white"/>
<path d="M23.7431 2.60558C23.5472 2.9054 23.3378 3.07123 23.0832 3.12483C22.8755 3.16838 22.6946 3.14325 22.4115 3.02935C22.3194 2.9925 22.2373 2.9657 22.2289 2.97073C22.2206 2.97575 22.172 3.08798 22.1184 3.21863C22.033 3.43136 22.0263 3.45816 22.0514 3.47658C22.1083 3.51846 22.3948 3.59886 22.5572 3.61896C22.9358 3.66418 23.4115 3.54861 23.7482 3.32918C23.9977 3.16503 24.3595 2.758 24.3009 2.7044C24.2808 2.68598 23.8721 2.42803 23.8621 2.42803C23.8604 2.42803 23.8068 2.50843 23.7431 2.60558Z" fill="white"/>
<path d="M41.0023 3.54694C40.9688 3.68429 40.6606 4.65579 40.3206 5.70603C39.9789 6.75793 39.6941 7.63564 39.6891 7.65741C39.6791 7.69594 39.6891 7.70096 39.9605 7.78806C40.1146 7.83664 40.2469 7.87851 40.2519 7.87851C40.2569 7.88019 40.9588 7.32744 41.8097 6.65073C43.1028 5.62395 43.3925 5.3861 43.5701 5.20687C43.6873 5.08795 43.7862 4.9908 43.7929 4.9908C43.7979 4.9908 43.7845 5.02597 43.761 5.06952C43.7393 5.11475 43.694 5.22027 43.6605 5.3057C43.5952 5.46817 42.5785 8.58369 42.5785 8.61887C42.5785 8.63059 42.7041 8.67917 42.8716 8.73277C43.0324 8.78469 43.1748 8.83159 43.1865 8.83662C43.2033 8.84332 43.225 8.78469 43.2703 8.60547C43.3054 8.47314 43.6187 7.48489 43.9687 6.40785C44.3188 5.33082 44.6052 4.43972 44.6052 4.42967C44.6052 4.40622 44.0374 4.25044 44.0106 4.26719C44.0006 4.27389 43.3105 4.82162 42.4763 5.48492C41.215 6.48993 40.9236 6.72778 40.7293 6.92208C40.602 7.04938 40.4948 7.14988 40.4898 7.14486C40.4847 7.13983 40.5182 7.05106 40.5651 6.94721C40.6757 6.69763 40.6924 6.64738 41.2402 4.96065C41.4998 4.16167 41.7142 3.50004 41.7192 3.48999C41.7226 3.47994 41.5936 3.43639 41.4026 3.38614C41.2251 3.33756 41.076 3.29904 41.071 3.29904C41.066 3.29904 41.0358 3.41126 41.0023 3.54694Z" fill="white"/>
<path d="M24.8738 3.60389C24.7314 3.65917 24.6091 3.70942 24.6007 3.71612C24.5907 3.72617 23.7163 6.86681 23.5689 7.42291C23.5271 7.57869 23.45 8.01922 23.45 8.10129C23.45 8.11302 23.4433 8.12307 23.4349 8.12307C23.4266 8.12307 23.4098 8.07952 23.3998 8.02592C23.3445 7.75457 23.2423 7.41621 22.78 5.99748C22.5036 5.14658 22.2742 4.44642 22.2708 4.44307C22.2675 4.43972 22.1268 4.4883 21.9576 4.55362C21.7047 4.64742 21.6494 4.67422 21.6527 4.70102C21.6527 4.71777 21.6963 4.83335 21.7465 4.9573C21.7968 5.08125 22.1201 6.04941 22.4634 7.10969C22.8068 8.16829 23.0899 9.0393 23.0932 9.04265C23.0966 9.04767 23.2289 9.00915 23.388 8.9589L23.6761 8.86677L24.1736 7.07451C24.7716 4.9238 24.7666 4.93887 24.79 4.73955C24.8001 4.65245 24.8135 4.54692 24.8168 4.5084C24.8218 4.4682 24.8302 4.43805 24.8336 4.44307C24.8386 4.4481 24.857 4.5218 24.8754 4.60722C24.8922 4.69432 24.9223 4.8166 24.9424 4.88192C24.9944 5.0578 25.9809 8.09627 25.9893 8.10464C25.9927 8.10799 26.1384 8.06444 26.3143 8.00749L26.6325 7.90364L26.6057 7.84167C26.5119 7.62392 26.3511 7.14821 25.7933 5.42965C25.45 4.36937 25.1602 3.50004 25.1501 3.50172C25.1418 3.50172 25.0161 3.54694 24.8738 3.60389Z" fill="white"/>
<path d="M46.5734 5.44639C46.493 5.65744 46.3422 5.95727 45.4444 7.71938C44.7761 9.02923 44.5751 9.43794 44.5918 9.44966C44.6036 9.45636 44.7577 9.53676 44.9319 9.62554C45.1077 9.71431 45.4092 9.86674 45.6019 9.96557C46.1111 10.2252 46.3606 10.3006 46.7141 10.3006C47.034 10.3006 47.2702 10.2202 47.4913 10.0359C47.6872 9.87344 47.8715 9.58199 47.9284 9.34414C48.0088 9.01248 47.9201 8.65403 47.6889 8.37933C47.632 8.31233 47.5867 8.25371 47.5867 8.24868C47.5867 8.24365 47.6269 8.2403 47.6755 8.2403C47.7258 8.2403 47.8229 8.22523 47.8949 8.2068C48.2835 8.10798 48.58 7.80983 48.7107 7.38605C48.7643 7.21352 48.7643 6.95725 48.7107 6.7998C48.6219 6.54184 48.4159 6.29227 48.1361 6.10802C48.0072 6.02092 46.6705 5.32579 46.6353 5.32579C46.627 5.32579 46.6002 5.38106 46.5734 5.44639ZM47.3489 6.20852C47.7073 6.39444 47.8145 6.46144 47.9268 6.57534C48.044 6.69427 48.0959 6.81152 48.1026 6.96897C48.1211 7.36595 47.8112 7.75958 47.4142 7.84165L47.3154 7.86175L46.838 7.62055C46.5767 7.48655 46.3573 7.3693 46.3539 7.35925C46.3439 7.33747 47.0005 6.04604 47.0206 6.04604C47.029 6.04604 47.178 6.11974 47.3489 6.20852ZM46.5382 7.99743C46.7794 8.12138 46.9837 8.2403 47.044 8.28888C47.2534 8.45806 47.364 8.70093 47.3472 8.95051C47.3271 9.27211 47.1311 9.57194 46.8514 9.71096C46.7375 9.76791 46.7124 9.77294 46.5549 9.77796C46.3221 9.78801 46.235 9.75954 45.7409 9.51164L45.3406 9.31064L45.5483 8.90528C45.6622 8.68251 45.838 8.33913 45.9369 8.14315C46.0374 7.94885 46.1228 7.78805 46.1261 7.78805C46.1312 7.78805 46.3154 7.88185 46.5382 7.99743Z" fill="white"/>
<path d="M19.2206 5.87185C19.0548 5.9757 18.966 6.0427 18.9576 6.06615C18.9476 6.09966 18.6997 9.25202 18.6612 9.83995C18.6528 9.95888 18.6528 10.175 18.6595 10.3173C18.6679 10.4597 18.6679 10.582 18.6612 10.5904C18.6545 10.5971 18.6159 10.525 18.5774 10.4312C18.4752 10.19 18.4401 10.123 17.5808 8.57197L16.8136 7.18674L16.6847 7.26714C16.6143 7.31069 16.4853 7.39109 16.3982 7.44469C16.3111 7.49829 16.2374 7.54351 16.2341 7.54519C16.2324 7.54686 16.2709 7.60884 16.3195 7.68086C16.4619 7.89024 16.5708 8.07952 17.5624 9.86843C18.0749 10.7981 18.502 11.5568 18.5104 11.5568C18.5171 11.5568 18.6411 11.4915 18.7851 11.4128C18.9995 11.2922 19.0447 11.262 19.0447 11.2302C19.0447 11.2101 19.1134 10.3307 19.1972 9.27715C19.3328 7.56529 19.3479 7.33079 19.3395 7.07619C19.3362 6.91874 19.3261 6.77468 19.3211 6.75291C19.296 6.67418 19.3446 6.72108 19.3814 6.81153C19.4015 6.86513 19.4668 7.00249 19.5238 7.11806C19.6695 7.40784 21.1485 10.0728 21.1686 10.0795C21.177 10.0812 21.2356 10.0544 21.2993 10.0192C21.3629 9.984 21.4919 9.91198 21.5857 9.85838L21.7566 9.7629L21.6343 9.5753C21.5673 9.47145 21.2608 8.93545 20.9542 8.38269C19.7248 6.16498 19.4769 5.71943 19.4752 5.71775C19.4735 5.71608 19.3596 5.78643 19.2206 5.87185Z" fill="white"/>
<path d="M50.6922 7.96226C50.6252 8.07281 50.0406 8.92539 49.389 9.85502C48.7391 10.7846 48.2065 11.5501 48.2065 11.5585C48.2065 11.5702 50.4225 13.128 50.4594 13.1431C50.4778 13.1481 50.786 12.7762 50.786 12.7494C50.786 12.7427 50.724 12.7009 50.6486 12.659C50.5498 12.6037 49.0339 11.5853 48.9988 11.5501C48.9887 11.5418 49.9116 10.2419 49.9284 10.2419C49.9384 10.2419 50.2651 10.4781 50.652 10.7662C51.0389 11.056 51.3622 11.2888 51.3706 11.2855C51.3789 11.2821 51.461 11.185 51.5548 11.0677L51.7223 10.855L51.1578 10.4748C50.848 10.2654 50.5046 10.0342 50.3957 9.96054L50.1997 9.82822L50.312 9.66574C50.8748 8.85671 51.0975 8.54348 51.1109 8.54181C51.1428 8.54181 52.4459 9.49321 52.7776 9.75954L52.8245 9.79807L52.9853 9.59539L53.1477 9.39271L52.1377 8.68586C51.5816 8.29726 51.0573 7.92875 50.9702 7.86845L50.8111 7.75958L50.6922 7.96226Z" fill="white"/>
<path d="M14.4117 8.99574L14.1588 9.21014L14.1973 9.42789C14.2626 9.79974 14.3028 10.2285 14.338 10.9455C14.3464 11.1381 14.3581 11.3759 14.3648 11.4731L14.3732 11.6506L14.204 11.7913C14.1119 11.8701 14.0298 11.9354 14.0231 11.9387C14.013 11.9421 12.8121 10.5284 12.7199 10.4027C12.7049 10.3826 12.658 10.4178 12.4503 10.6121L12.199 10.845L12.3933 11.0476C12.5005 11.1599 13.1722 11.9488 13.8857 12.8014C14.5993 13.6539 15.1889 14.3507 15.1956 14.3491C15.2023 14.3474 15.3212 14.2519 15.4586 14.1363L15.7081 13.927L15.5406 13.7477C15.3313 13.5233 14.338 12.3407 14.3397 12.319C14.3397 12.3089 14.4067 12.2469 14.4904 12.1799L14.6395 12.056L15.9125 12.3592C16.6126 12.5267 17.2006 12.664 17.219 12.6674C17.2408 12.669 17.3463 12.5853 17.5389 12.4111L17.8253 12.1515L17.5674 12.1146C17.415 12.0912 16.817 11.9588 16.0884 11.7863L14.8656 11.4982L14.8623 11.2721C14.8556 10.8383 14.8221 10.056 14.7969 9.74782C14.7735 9.44967 14.6981 8.86509 14.6747 8.80981C14.6663 8.78804 14.6093 8.82824 14.4117 8.99574Z" fill="white"/>
<path d="M32.6206 8.94548C27.3444 9.13141 22.2959 11.0024 18.1704 14.3005C15.8254 16.1748 13.8154 18.4947 12.3029 21.0709C11.7652 21.9854 11.189 23.1445 10.7753 24.1445C8.92103 28.6269 8.44868 33.6837 9.43861 38.4876C9.78868 40.1895 10.323 41.8477 11.0483 43.4909C11.3431 44.1592 11.9092 45.258 12.3029 45.928C14.1822 49.129 16.7919 51.8911 19.899 53.9631C23.0513 56.0652 26.6744 57.4119 30.4347 57.8776C33.4481 58.2528 36.4681 58.0752 39.4094 57.3499C44.3573 56.1322 48.8128 53.3802 52.1679 49.4707C55.28 45.8443 57.2699 41.3636 57.8712 36.6267C58.166 34.2984 58.1292 31.9317 57.764 29.6185C56.8143 23.6219 53.6368 18.158 48.8765 14.339C44.2635 10.6372 38.5367 8.73611 32.6206 8.94548ZM34.9824 9.52002C36.5267 9.62219 37.9555 9.84497 39.3742 10.2017C46.0072 11.8717 51.6469 16.3323 54.8177 22.4193C56.3771 25.4125 57.2498 28.5666 57.481 32.0506C57.5228 32.6687 57.5228 34.3303 57.481 34.9483C57.3939 36.2549 57.2414 37.3721 56.9885 38.5496C55.4358 45.7991 50.5816 51.948 43.8682 55.1724C41.0827 56.5108 38.1615 57.2662 34.9489 57.4806C34.3308 57.5225 32.6692 57.5225 32.0511 57.4806C28.6877 57.2561 25.6844 56.4521 22.7632 54.9898C17.4568 52.3366 13.3062 47.7973 11.1304 42.2681C9.76691 38.8059 9.23761 35.0354 9.58266 31.2633C10.0902 25.7056 12.5424 20.488 16.5155 16.5149C20.6812 12.3508 26.197 9.86507 32.0427 9.52169C32.701 9.48317 32.6826 9.48317 33.6675 9.48986C34.2688 9.49321 34.7177 9.50327 34.9824 9.52002Z" fill="white"/>
<path d="M39.2452 11.5083C38.4915 11.6289 37.9304 11.8801 37.5351 12.2788C37.051 12.7662 36.8165 13.4362 36.8165 14.3374C36.8165 15.1564 37.1297 15.7728 37.6791 16.0375C37.8701 16.1296 38.0024 16.1614 38.2235 16.1732C38.8148 16.205 39.3223 15.9487 39.5819 15.4847C39.8298 15.0425 39.8449 14.4194 39.6188 13.9789C39.468 13.6891 39.2 13.4747 38.8767 13.3876C38.7143 13.3424 38.3474 13.3474 38.1481 13.396C37.9119 13.4546 37.7042 13.5652 37.5501 13.7193C37.4781 13.7896 37.4195 13.8382 37.4195 13.8281C37.4195 13.7695 37.4781 13.4931 37.5133 13.3759C37.7042 12.7645 38.1364 12.3491 38.8081 12.1263C38.9856 12.0677 39.3005 11.9923 39.3742 11.9923C39.4513 11.9907 39.4529 11.9773 39.4211 11.726C39.396 11.5317 39.3859 11.4898 39.3642 11.4915C39.3491 11.4932 39.2955 11.4999 39.2452 11.5083ZM38.5233 13.87C38.8215 13.9169 39.0476 14.143 39.1297 14.4714C39.1632 14.602 39.1581 14.9538 39.123 15.0911C39.0308 15.4445 38.8014 15.6522 38.4597 15.6941C38.0409 15.7444 37.7193 15.535 37.5753 15.1162C37.5367 15.0007 37.53 14.9554 37.53 14.7896C37.53 14.5752 37.5585 14.4429 37.6372 14.2888C37.798 13.9688 38.1414 13.808 38.5233 13.87Z" fill="white"/>
<path d="M31.4146 11.5518C31.3878 11.5552 31.3074 11.5719 31.2387 11.5903C30.5721 11.7595 30.1734 12.3441 30.2053 13.1062C30.217 13.3726 30.2455 13.4898 30.3527 13.7143C30.5302 14.0828 30.8552 14.3055 31.289 14.3541C31.5587 14.3843 31.8803 14.3273 32.1416 14.2017C32.2521 14.1481 32.3124 14.1029 32.4213 13.9957C32.5352 13.8834 32.5586 13.8667 32.5519 13.9019C32.495 14.2586 32.4481 14.4194 32.3409 14.6372C32.1198 15.0861 31.7345 15.401 31.1784 15.5869C31.0076 15.6439 30.6491 15.7276 30.5738 15.7276C30.5269 15.7276 30.5252 15.7477 30.562 16.0224L30.5888 16.2234L30.6927 16.21C31.2103 16.1413 31.7479 15.9537 32.1131 15.7125C32.2689 15.6087 32.4849 15.4077 32.6122 15.2502C32.8719 14.9236 33.0444 14.4948 33.1265 13.9789C33.1683 13.7126 33.1683 13.0811 33.1265 12.8767C32.9807 12.1598 32.5687 11.6858 31.9891 11.5669C31.8702 11.5418 31.5503 11.5334 31.4146 11.5518ZM31.8501 12.0359C32.17 12.118 32.3928 12.4061 32.4447 12.7997C32.4782 13.0543 32.4196 13.3273 32.2873 13.5166C32.1282 13.7444 31.9054 13.8516 31.5922 13.8516C31.3711 13.8516 31.2036 13.7829 31.0679 13.6372C30.9104 13.4697 30.8401 13.2788 30.825 12.989C30.8016 12.4898 31.0344 12.1196 31.428 12.0342C31.5687 12.0041 31.7312 12.0041 31.8501 12.0359Z" fill="white"/>
<path d="M27.9909 11.7679C27.5722 11.8634 27.2271 11.9454 27.2238 11.9488C27.2154 11.9555 27.2522 12.2654 27.2606 12.2754C27.269 12.2821 28.1048 12.2151 28.2036 12.1984L28.2572 12.19V13.942V15.6941H27.8217H27.3862V15.9035V16.1129H28.5001H29.614V15.9035V15.6941H29.2539H28.8937V13.6422V11.5903L28.8234 11.592C28.7832 11.592 28.4097 11.6707 27.9909 11.7679Z" fill="white"/>
<path d="M34.5402 11.7679C34.1214 11.8634 33.7764 11.9454 33.773 11.9488C33.7647 11.9572 33.7982 12.2637 33.8099 12.2737C33.8183 12.2821 34.6457 12.2168 34.7529 12.1984L34.8065 12.19V13.942V15.6941H34.371H33.9355V15.9035V16.1129H35.041H36.1465V15.9035V15.6941H35.7948H35.443V13.6422V11.5903L35.3727 11.592C35.3325 11.592 34.9589 11.6707 34.5402 11.7679Z" fill="white"/>
<path d="M17.2693 28.6788C17.2693 36.1728 17.2743 40.2146 17.286 40.4173C17.4652 43.6902 18.5657 46.727 20.5104 49.3199C21.0095 49.9849 21.3847 50.4137 22.0246 51.0553C22.5087 51.5377 22.785 51.7906 23.2256 52.1524C25.4885 54.0116 28.2623 55.2327 31.1634 55.6498C31.9322 55.7604 32.3995 55.7955 33.2739 55.8056C34.5536 55.8207 35.5234 55.7369 36.6741 55.5074C39.4798 54.948 42.0124 53.6951 44.2284 51.7688C44.5383 51.5008 45.4143 50.6231 45.6823 50.3149C46.6923 49.1541 47.4695 47.9883 48.0993 46.6902C49.0658 44.6969 49.5917 42.6551 49.714 40.4173C49.7257 40.2146 49.7308 36.1728 49.7308 28.6788V17.2519H33.5H17.2693V28.6788ZM49.1278 28.5917V39.3118H44.1949H39.2637L39.2553 39.2565C39.2503 39.228 39.2436 39.1007 39.2386 38.9768C39.2201 38.5413 39.1464 38.2046 39.0074 37.9215C38.932 37.7707 38.8985 37.7238 38.7679 37.5932C38.6389 37.4609 38.5937 37.429 38.458 37.3637C38.2788 37.2766 38.0845 37.2247 37.8785 37.2079C37.793 37.2012 37.7378 37.1895 37.7378 37.1778C37.7378 37.1677 37.8232 36.7289 37.927 36.2046L38.1163 35.2499L38.2252 35.2298C38.9471 35.0924 39.5719 34.8428 40.1648 34.4525C40.2335 34.4073 40.2938 34.3705 40.2988 34.3705C40.3039 34.3705 40.7042 34.6402 41.1883 34.9701L42.0676 35.5681L42.0794 35.7105C42.0861 35.7892 42.0995 35.9852 42.1095 36.146C42.1497 36.8327 42.2854 37.4207 42.5031 37.8629C42.8716 38.6133 43.4713 38.9734 44.493 39.0588C44.6103 39.0689 44.9252 39.0773 45.1932 39.0773H45.6773V37.2213V35.3671L44.3708 32.8211L43.0643 30.2751L43.1045 30.0992C43.1949 29.719 43.2552 29.3237 43.2753 28.9753L43.287 28.781L43.54 28.5649C44.7912 27.4946 45.416 26.4845 45.5248 25.3522C45.6019 24.5583 45.4076 23.6621 44.9319 22.6286C44.8716 22.4963 44.7962 22.3389 44.7644 22.2802L44.7074 22.173L44.7761 22.0709C44.8716 21.9235 44.9654 21.7191 45.0173 21.5466C45.0575 21.4159 45.0625 21.3674 45.0642 21.1546C45.0659 20.9436 45.0609 20.895 45.0274 20.7861C44.8984 20.3741 44.6153 20.091 44.2033 19.962C44.0391 19.9118 43.6874 19.9068 43.5165 19.9537C43.3741 19.9922 43.1514 20.0994 43.0241 20.1898C42.8984 20.2803 42.6706 20.5148 42.5852 20.6421L42.5232 20.7359H40.8265H39.1297L39.0761 20.6572C38.7696 20.2116 38.329 19.9419 37.8701 19.9202C37.7595 19.9135 37.6473 19.9185 37.577 19.9319C37.1046 20.0173 36.7428 20.3506 36.6138 20.8129C36.5435 21.0659 36.572 21.4427 36.6842 21.7024C36.7009 21.7442 36.716 21.7861 36.716 21.7978C36.716 21.8096 36.6457 21.8481 36.5619 21.8833C35.9304 22.1395 35.3576 22.5784 34.9271 23.1345L34.8015 23.297L30.8552 23.3037C26.5705 23.3104 26.8352 23.3037 26.2724 23.3992C24.5806 23.6856 23.1452 24.6671 22.2574 26.1462C21.7784 26.9418 21.4769 27.8463 21.363 28.8178C21.3261 29.1227 21.3211 29.8613 21.3529 30.1411C21.3814 30.394 21.4484 30.7726 21.5003 30.9769C21.5841 31.3086 21.7348 31.729 21.8504 31.9585L21.8923 32.0422H22.1351H22.378V32.6201V33.1963L22.2825 33.2583C22.0279 33.4207 21.7532 33.7055 21.6075 33.9601C21.4115 34.3035 21.3228 34.6552 21.3228 35.0857V35.275H21.7633H22.2021L22.1268 35.3386C21.8755 35.5447 21.6929 35.7674 21.5589 36.0287C21.3998 36.3403 21.3429 36.5714 21.3278 36.9701L21.3177 37.2515H21.847H22.378V38.2816V39.3118H20.1251H17.8723V28.5917V17.8716H33.5H49.1278V28.5917ZM38.0409 20.4964C38.3207 20.5902 38.5937 20.8598 38.7746 21.2166L38.8098 21.2886H40.8248H42.8398L42.8783 21.2082C42.9939 20.9704 43.2385 20.6873 43.421 20.5801C43.741 20.3925 44.1044 20.421 44.3373 20.6521C44.6555 20.9721 44.5818 21.4846 44.1396 22.0156L44.0575 22.1161L44.1229 22.2333C44.2518 22.4662 44.5031 22.9921 44.5935 23.2233C45.1463 24.6253 45.0692 25.7793 44.3557 26.8514C43.9034 27.5297 43.2887 28.121 42.1346 28.9853C41.741 29.2801 40.8365 29.9317 40.8231 29.9317C40.8064 29.9317 39.7963 29.198 39.4128 28.9099C38.3575 28.1126 37.7177 27.4929 37.2939 26.8581C36.6256 25.8564 36.515 24.7944 36.9455 23.5164C37.0694 23.1479 37.319 22.5935 37.5267 22.2283C37.5971 22.106 37.6071 22.1412 37.4279 21.9084C37.3006 21.7442 37.18 21.5114 37.1415 21.3556C37.1013 21.1965 37.1147 20.9737 37.1716 20.8498C37.319 20.5299 37.6925 20.3791 38.0409 20.4964ZM36.8333 22.3657C36.8333 22.369 36.7813 22.4846 36.7177 22.6219C36.4229 23.2618 36.247 23.8112 36.1515 24.3908C36.1097 24.642 36.1097 25.3857 36.1515 25.6102C36.2252 26.0004 36.3257 26.3019 36.4999 26.652C36.7495 27.1562 37.0694 27.5716 37.6222 28.1143C38.1984 28.6788 38.716 29.0908 40.1498 30.1243C40.5049 30.3789 40.803 30.5917 40.8131 30.5967C40.8315 30.6034 41.746 29.9518 42.3758 29.4845C42.5534 29.3521 42.7008 29.2449 42.7041 29.2483C42.7075 29.2516 42.6958 29.3438 42.6773 29.4543C42.4931 30.6519 41.9889 31.7893 41.2117 32.7625C40.994 33.0355 40.5618 33.471 40.3089 33.6737C39.9035 33.9986 39.4077 34.2901 38.9706 34.4626C38.7863 34.5346 38.4496 34.6351 38.3039 34.6619C38.2319 34.6753 38.2302 34.672 38.2587 34.5396C38.2754 34.4576 38.2788 34.4542 38.4044 34.3855C39.3307 33.8797 39.9622 32.9936 40.1548 31.9333C40.1866 31.7541 40.19 31.672 40.1916 31.1796V30.6268H39.9236H39.6556L39.6607 31.0288C39.669 31.5799 39.6389 31.8546 39.5283 32.2147C39.3876 32.6737 39.1163 33.1125 38.7645 33.4492C38.5468 33.6586 38.3475 33.7976 38.0443 33.9534L37.7964 34.0824L37.443 35.8545C37.2503 36.8311 37.0862 37.6518 37.0795 37.6803L37.0694 37.7339L37.4915 37.7423C37.9421 37.7506 38.0259 37.7624 38.1984 37.8461C38.5233 38.0036 38.6691 38.357 38.7026 39.0722L38.7143 39.3118H38.4949H38.2738V38.826V38.3402H38.1398H38.0058L38.0024 38.821L37.9974 39.3034L37.7847 39.3084L37.5703 39.3134V38.826V38.3402H37.4279H37.2855V38.826V39.3118H37.0678H36.85V38.826V38.3402H36.716H36.582V38.826V39.3118H35.6356H34.6893V38.0052V36.6987H34.1683H33.6474L33.6591 36.6435C33.691 36.4877 33.7881 36.2649 33.8903 36.1125C33.9657 36.0019 34.1466 35.8177 34.2638 35.7339C34.3191 35.6954 34.438 35.6267 34.5268 35.5832L34.6893 35.5045V35.1226V34.739H34.17C33.8015 34.739 33.6508 34.7339 33.6508 34.7206C33.6508 34.6703 33.7094 34.4827 33.7596 34.3755C33.9171 34.0338 34.16 33.7909 34.5201 33.615L34.6792 33.5363L34.6759 32.208C34.6742 31.4761 34.6675 30.8195 34.6625 30.7474L34.6507 30.6185H34.3844H34.1181L34.1298 31.9032L34.1415 33.1896L33.9925 33.2901C33.8216 33.404 33.5754 33.6418 33.4615 33.8026C33.299 34.0321 33.165 34.3487 33.1148 34.6251L33.0947 34.739H30.7865H28.48L28.6023 34.553C28.7933 34.2649 28.9423 33.9417 29.0345 33.6184C29.14 33.2499 29.1685 32.9953 29.1567 32.5464C29.15 32.2633 29.14 32.1645 29.1031 31.9936C29.0043 31.5196 28.8385 31.1226 28.5789 30.7307L28.5035 30.6185H28.1534H27.8017L27.8335 30.6586C27.8502 30.6804 27.9038 30.7458 27.9541 30.8044C28.2455 31.1478 28.47 31.6134 28.5705 32.0908C28.6107 32.2801 28.6157 32.337 28.6157 32.6536C28.6174 32.9551 28.6124 33.0321 28.5789 33.1946C28.4968 33.6 28.3192 34.0204 28.0948 34.337C27.9323 34.5648 27.5889 34.9048 27.3662 35.0539C27.0814 35.2465 26.7213 35.4123 26.4885 35.4609L26.3846 35.4827L25.9575 36.5798C25.7213 37.1845 25.5237 37.692 25.517 37.7071C25.5069 37.7356 25.5253 37.7372 25.7665 37.7372C26.2138 37.7372 26.4416 37.7992 26.6241 37.9734C26.8268 38.1644 26.9223 38.4927 26.9457 39.0639L26.9558 39.3118H26.7112H26.465V38.826V38.3402H26.331H26.197V38.826V39.3118H25.9793H25.7615V38.826V38.3402H25.6191H25.4768V38.826V39.3118H25.259H25.0413V38.826V38.3402H24.9073H24.7733V38.826V39.3118H23.852H22.9308V38.0052V36.6987H22.4115H21.8923L21.9023 36.6518C22.0062 36.1778 22.3244 35.7926 22.7884 35.5748L22.9308 35.5078V35.1242V34.739H22.4115C22.1268 34.739 21.8923 34.7339 21.8923 34.7256C21.8923 34.6753 21.9727 34.4391 22.0296 34.3269C22.1787 34.0254 22.4031 33.8043 22.7331 33.6335L22.9308 33.5313V33.0171C22.9308 32.734 22.9358 32.0791 22.9425 31.5598L22.9525 30.6185H22.6829H22.4115V31.054V31.4895H22.3211H22.2323L22.1469 31.2332C21.9509 30.6503 21.8755 30.1679 21.8755 29.5096C21.8772 28.1997 22.2842 26.9619 23.053 25.9368C23.8219 24.9134 24.9542 24.2099 26.2288 23.962C26.7766 23.8548 26.4349 23.8615 30.9708 23.8564L35.1013 23.8514L35.1549 23.7593C35.3877 23.369 35.7797 22.967 36.1968 22.6873C36.376 22.5683 36.8333 22.3372 36.8333 22.3657ZM43.9905 33.2666L45.1413 35.5128V37.027V38.5413H44.9788C44.8883 38.5413 44.7862 38.5362 44.7527 38.5312L44.689 38.5195V38.0454V37.5697H44.555H44.421V38.0387V38.5077L44.3842 38.501C44.3624 38.496 44.282 38.4793 44.2033 38.4642C44.1262 38.4491 44.0441 38.4307 44.024 38.4223L43.9855 38.4072V37.9885V37.5697H43.8515H43.7175V37.9299C43.7175 38.1761 43.7125 38.29 43.6991 38.29C43.6639 38.29 43.4428 38.1342 43.3457 38.0421C43.0291 37.7406 42.8247 37.2883 42.7142 36.6485C42.6606 36.3403 42.6422 36.1309 42.6304 35.6954L42.6204 35.2867L41.6991 34.6602C41.1933 34.3152 40.7729 34.0288 40.7662 34.0221C40.7595 34.0137 40.8265 33.945 40.9136 33.868C41.3641 33.4727 41.8918 32.8177 42.2519 32.2097C42.3976 31.9652 42.6539 31.4442 42.7494 31.2047C42.7879 31.1042 42.8247 31.0205 42.8298 31.0205C42.8348 31.0205 43.3557 32.0322 43.9905 33.2666ZM29.9591 35.3202C29.8686 35.3688 29.6743 35.4257 29.4901 35.4592C29.3896 35.4777 29.3008 35.4927 29.2924 35.4927C29.2857 35.4927 29.279 35.9969 29.279 36.6133V37.7339L29.6944 37.7423C30.0093 37.749 30.1316 37.7573 30.2086 37.7791C30.6575 37.9047 30.8334 38.2129 30.887 38.9684C30.8954 39.0974 30.9038 39.228 30.9038 39.2565V39.3118H30.686H30.4683V38.826V38.3402H30.3259H30.1835V38.826V39.3118H29.9658H29.748V38.826V38.3402H29.614H29.48V38.826V39.3118H28.4918H27.5035V39.2481C27.5035 39.1041 27.4667 38.6887 27.4432 38.5413C27.3678 38.094 27.1869 37.7171 26.9541 37.5228C26.7933 37.3888 26.5538 37.2749 26.3695 37.2431C26.3293 37.2364 26.2975 37.223 26.2975 37.213C26.2975 37.2012 26.4064 36.9182 26.537 36.5832L26.7749 35.9718L26.9759 35.9031C27.0864 35.8646 27.2456 35.7993 27.3293 35.7574C27.5085 35.6653 27.795 35.476 27.9139 35.3688L27.9976 35.2934H29.0026C29.9256 35.2934 30.0043 35.2951 29.9591 35.3202ZM33.84 35.3721C33.3375 35.7926 33.0813 36.3537 33.0813 37.0371V37.2515H33.6089H34.1365V38.2816V39.3118H32.7915H31.4448L31.4347 39.0521C31.4146 38.5563 31.3443 38.2297 31.1952 37.9232C31.1115 37.754 31.0847 37.7138 30.9557 37.5848C30.8334 37.4625 30.7848 37.4274 30.6525 37.3637C30.4532 37.2666 30.2622 37.2197 30.0194 37.2063L29.8318 37.1962L29.8351 36.5698L29.8401 35.9433L29.9658 35.9014C30.2505 35.8076 30.6073 35.6033 30.8619 35.3906L30.9791 35.2917H32.4582H33.9372L33.84 35.3721ZM49.111 40.0454C49.111 40.4441 49.0474 41.2129 48.967 41.7824C48.3757 45.9917 46.0608 49.8007 42.5802 52.2914C39.4044 54.5661 35.4983 55.561 31.6073 55.0904C27.3997 54.5795 23.579 52.3718 21.0229 48.9766C19.5975 47.0821 18.6444 44.9616 18.1821 42.6534C18.018 41.8326 17.9175 40.9784 17.894 40.1995L17.884 39.8561L33.4983 39.8528L49.111 39.8511V40.0454Z" fill="white"/>
<path d="M38.793 24.2484C38.793 24.2567 38.8148 24.2986 38.8416 24.3455C38.9035 24.4527 39.0476 24.5901 39.1581 24.6454C39.3173 24.7258 39.535 24.7593 39.6858 24.7241C39.7193 24.7157 39.7511 24.714 39.7528 24.7207C39.7561 24.7258 39.7343 24.8698 39.7042 25.0407C39.5534 25.8765 39.5132 26.2751 39.5451 26.6453C39.5786 27.0306 39.674 27.389 39.8382 27.7424L39.9136 27.9049H40.8248H41.736L41.8164 27.7257C41.9252 27.4828 42.0006 27.25 42.0542 27.0004C42.0961 26.8078 42.0994 26.7592 42.0994 26.3974C42.0994 25.9636 42.0927 25.8999 41.9671 25.1747C41.9252 24.9385 41.8917 24.7392 41.8917 24.7291C41.8917 24.7174 41.9236 24.7174 41.9922 24.7291C42.3038 24.781 42.6823 24.5951 42.8197 24.3238L42.8632 24.2366H42.1095C41.6438 24.2366 41.3557 24.2433 41.3557 24.2534C41.3557 24.2986 41.4328 24.8011 41.4981 25.1747C41.6304 25.9351 41.6321 25.9519 41.6321 26.3807C41.6304 26.8178 41.6137 26.9384 41.5015 27.2667L41.4479 27.4275L40.8231 27.4326C40.4814 27.4342 40.2 27.4342 40.2 27.4326C40.2 27.4292 40.1732 27.3488 40.1414 27.2533C40.0392 26.9518 40.009 26.7525 40.009 26.389C40.009 26.0306 40.0157 25.9653 40.1414 25.2165C40.1916 24.9217 40.2435 24.5934 40.2586 24.4879C40.2737 24.3824 40.2888 24.2819 40.2938 24.2651C40.3022 24.2383 40.2586 24.2366 39.5484 24.2366C39.133 24.2366 38.793 24.2417 38.793 24.2484Z" fill="white"/>
<path d="M40.4127 26.6755L40.3206 26.8212L40.5651 27.0021C40.7008 27.1026 40.8197 27.1813 40.8298 27.178C40.8432 27.173 41.2301 26.8932 41.3189 26.8229C41.3222 26.8212 41.282 26.7542 41.2284 26.6755L41.133 26.5314H40.8181H40.5048L40.4127 26.6755Z" fill="white"/>
<path d="M28.3243 41.7757C27.7129 41.8176 27.1752 41.9013 26.6543 42.0353L26.4818 42.0805V46.7689C26.4818 51.2261 26.4834 51.4573 26.5119 51.4489C26.6895 51.397 27.4415 51.2747 27.8804 51.2261C28.2723 51.1842 29.4381 51.1842 29.8401 51.2261C31.0227 51.3517 32.1466 51.6382 33.2337 52.0904C33.3677 52.1474 33.4883 52.1926 33.5034 52.1926C33.5168 52.1926 33.5988 52.1624 33.6843 52.1239C33.9338 52.0167 34.5234 51.8006 34.8232 51.7068C35.5988 51.4673 36.3274 51.3166 37.1599 51.2261C37.5468 51.1842 38.736 51.1842 39.1196 51.2261C39.5668 51.2747 40.3089 51.3953 40.4898 51.4489C40.5166 51.4573 40.5183 51.2261 40.5183 46.7689V42.0805L40.3474 42.0353C39.6104 41.8444 38.8617 41.7573 37.9555 41.7573C36.2202 41.7573 34.577 42.1073 33.5804 42.6902L33.5 42.7371L33.4213 42.6902C32.5687 42.1928 31.2672 41.8678 29.748 41.774C29.4281 41.7539 28.6291 41.7556 28.3243 41.7757ZM29.949 42.3268C30.9172 42.4055 31.7764 42.578 32.4448 42.8226C32.6391 42.8946 33.0076 43.0705 33.1365 43.1542L33.232 43.2145V47.3518C33.232 49.6265 33.227 51.4891 33.222 51.4891C33.2169 51.4891 33.093 51.4455 32.9489 51.3903C31.1031 50.6951 29.1216 50.4757 27.274 50.7588L27.0345 50.7956V46.6466V42.4976L27.1233 42.4775C27.4516 42.4055 27.9859 42.3385 28.4331 42.31C28.7179 42.2933 29.6609 42.3033 29.949 42.3268ZM38.525 42.31C39.0091 42.3368 39.6456 42.4189 39.9286 42.4892L39.9655 42.4976V46.6466V50.7956L39.7276 50.7588C38.7126 50.603 37.5904 50.6013 36.5234 50.7521C35.6943 50.871 34.7914 51.1055 33.9925 51.412C33.8802 51.4539 33.7848 51.4891 33.7781 51.4891C33.773 51.4891 33.768 49.6265 33.768 47.3518V43.2145L33.8568 43.1576C34.7697 42.5747 36.7629 42.2129 38.525 42.31Z" fill="white"/>
<path d="M28.475 44.0135C28.3343 44.0202 27.9574 44.052 27.8686 44.0638L27.7882 44.0738V44.2447C27.7882 44.3385 27.7916 44.4189 27.7949 44.4222C27.8 44.4272 27.8921 44.4205 28.001 44.4088C28.1098 44.3988 28.3912 44.3803 28.6257 44.3703C29.8585 44.315 31.2488 44.4892 32.2672 44.8242C32.4045 44.8694 32.5201 44.9063 32.5235 44.9063C32.5268 44.9063 32.5268 44.8225 32.5251 44.7187L32.5201 44.5311L32.3225 44.4674C31.5955 44.2313 30.6994 44.0772 29.7229 44.0185C29.4666 44.0035 28.7095 44.0001 28.475 44.0135Z" fill="white"/>
<path d="M28.4917 45.521C28.3293 45.5294 27.949 45.5595 27.8686 45.5713L27.7882 45.5813V45.7522C27.7882 45.846 27.7916 45.9264 27.7966 45.9297C27.8 45.9347 27.9005 45.928 28.0177 45.9163C28.7564 45.8443 29.6592 45.8577 30.4934 45.9548C31.1433 46.0302 31.9087 46.1977 32.361 46.3619C32.438 46.3903 32.5084 46.4138 32.5151 46.4138C32.5235 46.4138 32.5268 46.33 32.5251 46.2262L32.5201 46.0403L32.428 46.0084C31.8518 45.8074 30.9808 45.6349 30.1751 45.5595C29.7061 45.516 28.9055 45.4976 28.4917 45.521Z" fill="white"/>
<path d="M28.5169 47.0285C28.3778 47.0352 27.9825 47.0654 27.877 47.0788L27.7882 47.0888V47.2714V47.454L27.8435 47.4439C28.1366 47.3937 29.3175 47.3686 29.8116 47.4004C30.4029 47.4406 30.954 47.516 31.4816 47.6282C31.7731 47.6902 32.2052 47.8108 32.3861 47.8794C32.4481 47.9029 32.505 47.9213 32.5151 47.9213C32.5235 47.9213 32.5268 47.8392 32.5251 47.7337L32.5201 47.5461L32.3191 47.4808C31.3845 47.181 30.1483 47.0101 28.9942 47.0202C28.7865 47.0218 28.5721 47.0252 28.5169 47.0285Z" fill="white"/>
<path d="M28.5504 48.536C28.4046 48.5427 27.9792 48.5746 27.877 48.5863L27.7882 48.5963V48.7772V48.9598L27.8519 48.9514C28.2221 48.8995 29.2941 48.8761 29.7932 48.9079C30.7463 48.9699 31.6223 49.129 32.3275 49.3685C32.423 49.402 32.5084 49.4288 32.5151 49.4288C32.5235 49.4288 32.5268 49.3451 32.5251 49.2412L32.5201 49.0536L32.3442 48.9967C31.3845 48.6918 30.1517 48.5193 29.011 48.5277C28.8133 48.5293 28.6056 48.5327 28.5504 48.536Z" fill="white"/>
<path d="M37.2353 44.0185C36.2755 44.0822 35.3844 44.238 34.6775 44.4674L34.4799 44.5311L34.4749 44.7187C34.4732 44.8225 34.4732 44.9063 34.4765 44.9063C34.4799 44.9063 34.5955 44.8694 34.7328 44.8242C35.7512 44.4892 37.1415 44.315 38.3743 44.3703C38.6088 44.3803 38.8902 44.3988 38.999 44.4088C39.1079 44.4205 39.2 44.4272 39.2051 44.4222C39.2084 44.4189 39.2118 44.3368 39.2118 44.2413C39.2118 44.1157 39.2067 44.0688 39.1917 44.0688C39.1799 44.0671 39.0644 44.0571 38.9354 44.042C38.6523 44.0135 37.5636 43.9984 37.2353 44.0185Z" fill="white"/>
<path d="M37.252 45.526C36.257 45.5897 35.2604 45.7689 34.572 46.0084L34.4799 46.0403L34.4748 46.2262C34.4732 46.33 34.4748 46.4138 34.4799 46.4138C34.4832 46.4138 34.5904 46.3803 34.7144 46.3384C35.4999 46.0754 36.448 45.9213 37.53 45.8778C38.0543 45.8577 38.8533 45.8862 39.1581 45.9364L39.2117 45.9465V45.7622V45.5796L39.1163 45.5696C38.798 45.5327 38.6071 45.5244 38.0727 45.5177C37.7461 45.5143 37.3759 45.5177 37.252 45.526Z" fill="white"/>
<path d="M37.2687 47.0336C36.3157 47.0922 35.3994 47.2513 34.6809 47.4808L34.4799 47.5461L34.4748 47.7337C34.4732 47.8376 34.4748 47.9213 34.4815 47.9213C34.4866 47.9213 34.5921 47.8878 34.7127 47.8476C35.309 47.6483 36.0376 47.5042 36.8584 47.4238C37.3927 47.3719 38.8566 47.3853 39.1665 47.4456L39.2117 47.4557V47.2714V47.0872L39.1079 47.0771C38.7545 47.0403 38.5937 47.0319 38.0811 47.0252C37.7679 47.0218 37.4027 47.0252 37.2687 47.0336Z" fill="white"/>
<path d="M37.2855 48.5411C36.3106 48.6014 35.4061 48.7588 34.6557 48.9967L34.4799 49.0536L34.4748 49.2412C34.4732 49.3451 34.4765 49.4288 34.4849 49.4288C34.4916 49.4288 34.577 49.402 34.6742 49.3702C35.386 49.1273 36.2537 48.9699 37.2068 48.9079C37.6975 48.8761 38.7813 48.9012 39.1414 48.9514L39.2117 48.9615V48.7772C39.2117 48.6399 39.2067 48.5913 39.1916 48.5913C39.1799 48.5913 39.0493 48.5796 38.9019 48.5662C38.5769 48.5344 37.6205 48.521 37.2855 48.5411Z" fill="white"/>
<path d="M54.6469 10.8148C54.5112 10.9789 54.2968 11.1917 52.8848 12.5568C52.0891 13.3256 51.4392 13.9588 51.4392 13.9655C51.4392 13.9722 51.5431 14.0844 51.6704 14.2151L51.8999 14.4546L52.0355 14.2988C52.1109 14.2151 52.3672 13.9538 52.6067 13.7226L53.0422 13.2988L53.342 13.6054C53.6871 13.9588 53.8244 14.0677 54.069 14.1849C54.3169 14.3038 54.4928 14.344 54.7557 14.3424C55.002 14.3407 55.1577 14.3055 55.3671 14.205C55.7272 14.0325 56.0405 13.674 56.1627 13.2955C56.2967 12.8767 56.1879 12.3943 55.8562 11.9488C55.7725 11.8382 55.5313 11.5786 54.9701 10.999L54.7139 10.7327L54.6469 10.8148ZM55.1594 11.8818C55.3839 12.123 55.4911 12.2821 55.5514 12.4613C55.6368 12.7126 55.6217 12.9354 55.5045 13.1699C55.4056 13.3675 55.1879 13.5836 54.9902 13.6791C54.6871 13.8265 54.3956 13.8181 54.1092 13.6506C54.0439 13.6121 53.9082 13.4898 53.7038 13.2838C53.5363 13.1129 53.4007 12.9689 53.4023 12.9605C53.4057 12.9538 53.7323 12.6355 54.1276 12.2536L54.8479 11.5585L54.9048 11.6121C54.935 11.6422 55.0505 11.7628 55.1594 11.8818Z" fill="white"/>
<path d="M10.8992 12.2402C10.8607 12.2754 10.7418 12.3759 10.6362 12.4647C9.96625 13.0208 9.6614 13.5384 9.63627 14.1531C9.61282 14.7393 9.8691 15.3206 10.4017 15.8834C10.8456 16.3524 11.3096 16.6304 11.8339 16.7427C12.0164 16.7812 12.39 16.7812 12.5709 16.7427C12.9729 16.6556 13.2911 16.483 13.606 16.1815C13.9343 15.8666 14.214 15.4613 14.3229 15.1464L14.3531 15.0576L14.1403 14.9504C14.0248 14.8901 13.9276 14.8432 13.9276 14.8449C13.9243 14.875 13.7869 15.1162 13.7015 15.2469C13.4888 15.5685 13.2358 15.8314 13.0147 15.9621C12.4101 16.3205 11.6027 16.1145 10.8674 15.411C10.6396 15.1933 10.4939 15.0023 10.3766 14.7645C10.261 14.53 10.2175 14.3759 10.2058 14.1514C10.1857 13.7712 10.2945 13.5132 10.6128 13.19C10.7166 13.0861 11.0969 12.7511 11.2845 12.6004C11.3062 12.5836 11.2861 12.5501 11.1471 12.3776C11.0567 12.267 10.9813 12.1766 10.9779 12.1766C10.9729 12.1766 10.9394 12.205 10.8992 12.2402Z" fill="white"/>
<path d="M57.1426 14.8834C56.5313 14.9856 55.7608 15.4228 55.3387 15.9035C54.9819 16.3105 54.8043 16.7594 54.8027 17.2519C54.801 17.7628 54.9819 18.2284 55.3705 18.7091C55.5129 18.885 55.8026 19.1631 55.9299 19.2451L56.0371 19.3138L56.0924 19.2502C56.1226 19.215 56.1912 19.1329 56.2465 19.0676L56.3453 18.9487L56.2633 18.8867C56.1544 18.8046 55.8931 18.5299 55.7742 18.3741C55.5547 18.086 55.4442 17.8432 55.4073 17.5668C55.3487 17.1313 55.5681 16.6338 56.0087 16.21C56.4559 15.7795 56.9902 15.5048 57.4676 15.4613C57.749 15.4362 57.9801 15.478 58.2063 15.5953C58.4743 15.736 58.6384 15.9437 58.9466 16.5366C59.0471 16.7326 59.1325 16.8934 59.1359 16.8968C59.1392 16.9001 59.2464 16.8515 59.3754 16.7879L59.6082 16.674L59.4223 16.3139C59.3185 16.1162 59.1895 15.8851 59.1325 15.803C58.7858 15.2888 58.3336 14.9705 57.826 14.8817C57.6518 14.8516 57.3252 14.8516 57.1426 14.8834Z" fill="white"/>
<path d="M7.37001 16.54L7.22764 16.8164L7.33651 17.0308C7.39681 17.148 7.66984 17.689 7.94286 18.2318C8.21589 18.7761 8.48556 19.2971 8.54084 19.3909C8.59779 19.4847 8.64301 19.5701 8.64301 19.5801C8.64301 19.5902 8.56596 19.5969 8.42359 19.5969C8.18909 19.5969 5.51746 19.7577 5.49233 19.7744C5.47391 19.7845 5.22098 20.2853 5.22936 20.292C5.23271 20.2937 5.37341 20.3674 5.54426 20.4545C5.71511 20.5416 6.60789 21.0491 7.52914 21.5801C8.45039 22.1127 9.21251 22.5516 9.22256 22.5566C9.23764 22.5617 9.50229 22.1362 9.51736 22.0792C9.52071 22.0692 9.43864 22.0206 9.33646 21.9704C9.23429 21.9201 8.61286 21.5684 7.95459 21.1881C7.29631 20.8079 6.66149 20.4461 6.54256 20.3858L6.32649 20.2753L6.54256 20.2719C6.75529 20.2669 9.17231 20.1228 9.30631 20.1061C9.45371 20.0877 9.47884 20.1513 8.80884 18.8264C8.47551 18.1681 8.14721 17.5383 8.08189 17.4277C8.01489 17.3172 7.96296 17.2234 7.96631 17.22C7.96966 17.2167 8.05676 17.2703 8.16061 17.339C8.35826 17.4713 11.1907 19.1111 11.2192 19.1111C11.2342 19.1111 11.5625 18.5584 11.5525 18.5483C11.5508 18.5467 11.4486 18.4964 11.328 18.4344C11.2058 18.3741 10.3029 17.8599 9.32139 17.2937C8.34151 16.7276 7.53249 16.2636 7.52579 16.2636C7.51741 16.2636 7.44874 16.3892 7.37001 16.54Z" fill="white"/>
<path d="M60.3 18.339C60.1844 18.411 59.2783 18.9034 58.285 19.4311C57.2934 19.9587 56.481 20.3975 56.481 20.4059C56.481 20.4176 56.7423 20.9185 56.7557 20.9335C56.7591 20.9352 57.62 21.0206 58.6686 21.1245C60.3034 21.2836 60.6216 21.3104 60.8946 21.3121C61.0705 21.3121 61.233 21.3071 61.2598 21.3004C61.2849 21.2937 61.305 21.2953 61.305 21.3037C61.305 21.3121 61.243 21.3439 61.1677 21.3741C61.0906 21.4042 60.9499 21.4679 60.8528 21.5164C60.6049 21.6387 57.9349 23.0608 57.9165 23.0792C57.9081 23.0876 57.9667 23.2149 58.0589 23.3874L58.2163 23.6822L58.2749 23.6437C58.4508 23.5231 58.7959 23.3355 60.4424 22.4612C61.4373 21.9335 62.2614 21.4913 62.2748 21.4796C62.2949 21.4612 62.2732 21.4176 62.1425 21.2015L61.9867 20.9436L59.9952 20.7543C58.0739 20.5701 57.9919 20.5634 57.7188 20.5734C57.5631 20.5784 57.4358 20.5768 57.4358 20.5684C57.4358 20.5617 57.491 20.5332 57.558 20.5081C57.6234 20.483 57.7507 20.4294 57.8378 20.3892C57.9902 20.3188 60.8293 18.818 60.8595 18.7912C60.8745 18.7778 60.5429 18.2066 60.5211 18.2066C60.5144 18.2066 60.4156 18.2669 60.3 18.339Z" fill="white"/>
<path d="M5.17742 22.5466C4.73522 22.6203 4.35834 22.9419 4.10877 23.4578C4.03172 23.6169 3.54597 24.9971 3.56607 25.0021C3.57109 25.0038 3.68164 25.0323 3.81062 25.0675C3.93959 25.101 4.90607 25.4259 5.95629 25.7877C7.00819 26.1495 7.88087 26.4477 7.89762 26.451C7.92274 26.4544 7.94619 26.4024 8.03497 26.1478C8.09359 25.9787 8.13547 25.8346 8.12877 25.8279C8.12207 25.8212 8.03832 25.7961 7.94452 25.771C7.85072 25.7458 7.60449 25.6688 7.40014 25.6001C7.19412 25.5298 6.93617 25.4427 6.82562 25.4058C6.71507 25.369 6.61959 25.3338 6.61289 25.3271C6.60619 25.3221 6.65812 25.1512 6.72679 24.9485C6.87084 24.5264 6.89429 24.436 6.91774 24.2132C6.94789 23.9251 6.90267 23.6454 6.78207 23.3858C6.61457 23.0206 6.34154 22.7744 5.95462 22.6353C5.68997 22.5415 5.40689 22.508 5.17742 22.5466ZM5.49232 23.1982C6.13217 23.2786 6.52747 23.7794 6.40687 24.3589C6.37504 24.5097 6.15729 25.1462 6.13384 25.1546C6.11877 25.1596 4.25784 24.5264 4.23774 24.5097C4.22099 24.4946 4.41529 23.9569 4.49234 23.8012C4.66319 23.4578 4.89602 23.2618 5.20087 23.2065C5.35162 23.1781 5.33152 23.1781 5.49232 23.1982Z" fill="white"/>
<path d="M62.712 23.4075C62.5964 23.436 62.4825 23.4662 62.4557 23.4712C62.4172 23.4812 62.4122 23.4879 62.4273 23.5147C62.4825 23.6203 62.8812 24.8698 62.8628 24.8815C62.8561 24.8866 61.97 25.1412 60.893 25.4511C59.8159 25.7593 58.9265 26.0155 58.9165 26.0189C58.9031 26.0239 58.9265 26.1278 58.9868 26.3405C59.0354 26.513 59.0789 26.6571 59.084 26.6604C59.0873 26.6638 59.2012 26.6303 59.3369 26.5834C59.5513 26.508 63.0018 25.5097 63.0437 25.5097C63.0604 25.5097 63.3016 26.441 63.3535 26.7107C63.372 26.8095 63.3904 26.8949 63.3921 26.8983C63.3988 26.9066 63.8745 26.7961 63.8912 26.781C63.9013 26.7726 62.9398 23.3657 62.9247 23.3556C62.9231 23.3539 62.8276 23.3774 62.712 23.4075Z" fill="white"/>
<path d="M2.88771 28.2115C2.73863 28.9786 2.61803 29.6068 2.61971 29.6084C2.61971 29.6101 2.73863 29.6252 2.88101 29.6436C3.02338 29.662 4.04011 29.8513 5.13891 30.0657C6.23771 30.2801 7.14221 30.4493 7.14723 30.4443C7.15896 30.4342 7.67151 27.8111 7.67151 27.7609C7.67151 27.7307 7.64471 27.719 7.42863 27.6621C7.29463 27.6286 7.18241 27.6018 7.17906 27.6051C7.17738 27.6085 7.16566 27.6939 7.15561 27.7961C7.13718 27.9736 6.82731 29.7089 6.81223 29.724C6.80553 29.7307 5.24108 29.4326 5.23103 29.4225C5.22936 29.4208 5.31478 29.0356 5.42031 28.5666C5.52583 28.0959 5.61293 27.7023 5.61628 27.6889C5.61796 27.6721 5.54426 27.6453 5.34661 27.5934C5.07693 27.523 5.07526 27.523 5.06688 27.5582C5.06353 27.5783 4.99151 27.982 4.90776 28.456C4.82568 28.93 4.75366 29.3203 4.75031 29.3237C4.74193 29.3321 3.22941 29.0423 3.21266 29.0272C3.19758 29.0155 3.49406 27.58 3.57781 27.2601C3.66826 26.92 3.67998 26.9535 3.44213 26.8916C3.33158 26.8614 3.22271 26.8329 3.19926 26.8279L3.15738 26.8179L2.88771 28.2115Z" fill="white"/>
<path d="M64.0838 28.2969C64.0553 28.3254 63.3619 28.4326 61.6249 28.6771C60.5144 28.8329 59.6032 28.9635 59.5998 28.9686C59.5881 28.9803 59.9683 31.6787 59.9834 31.6972C59.9951 31.7106 60.4792 31.6838 60.4943 31.6704C60.496 31.667 60.4809 31.59 60.4574 31.4978C60.4172 31.3287 60.1375 29.5515 60.1509 29.5397C60.166 29.5263 61.7321 29.3136 61.7422 29.3253C61.7472 29.332 61.7958 29.7324 61.8477 30.2164C61.9013 30.7005 61.9465 31.0975 61.9499 31.1008C61.9566 31.1075 62.4942 31.0606 62.5009 31.0523C62.506 31.0489 62.444 30.6436 62.3669 30.1511C62.2882 29.6603 62.2279 29.255 62.2329 29.25C62.243 29.2399 63.784 29.0222 63.7907 29.0305C63.8024 29.0439 64.0034 30.6972 64.0185 30.9015C64.0269 31.0255 64.0386 31.1293 64.0436 31.1344C64.052 31.1427 64.5377 31.1092 64.5461 31.1008C64.5495 31.0975 64.1609 28.3203 64.1542 28.2935C64.1525 28.2868 64.0922 28.2902 64.0838 28.2969Z" fill="white"/>
<path d="M6.86749 31.9417C6.68659 31.9618 6.15562 31.9769 4.24779 32.0087C3.24447 32.0271 2.42204 32.0439 2.41702 32.0472C2.40864 32.0573 2.46057 35.3051 2.47229 35.4911L2.48234 35.6318L2.57782 35.62C2.84414 35.5916 3.41197 35.5748 4.96637 35.5514C5.90604 35.538 6.76699 35.5212 6.87922 35.5162L7.08357 35.5061L7.07352 35.1778C7.06849 34.9953 7.06179 34.8462 7.06012 34.8428C7.05844 34.8412 6.98139 34.8462 6.89094 34.8546C6.73182 34.8713 2.96809 34.9484 2.95469 34.9366C2.94464 34.9249 2.90779 32.6955 2.91784 32.6854C2.92454 32.6804 3.84579 32.6603 4.96972 32.6419C6.09197 32.6218 7.01489 32.6017 7.02159 32.5966C7.04002 32.5782 7.01489 31.925 6.99479 31.9283C6.98474 31.9283 6.92779 31.935 6.86749 31.9417Z" fill="white"/>
<path d="M64.0821 33.2499L64.0905 33.9852H63.8074C63.6517 33.9852 62.722 33.9701 61.7405 33.9517C60.7606 33.935 59.9566 33.9216 59.9533 33.9232C59.9516 33.9249 59.9482 34.0773 59.9466 34.2599L59.9449 34.5932L60.1007 34.5899C60.1861 34.5882 60.2615 34.5832 60.2682 34.5782C60.2816 34.5715 64.0721 34.6351 64.0771 34.6435C64.0872 34.6552 64.0302 35.6988 64.0118 35.8696C64.0001 35.9802 63.9917 36.0723 63.9917 36.074C63.9967 36.0807 64.5076 36.1142 64.5143 36.1075C64.5176 36.1041 64.5327 35.476 64.5461 34.7122C64.5578 33.9484 64.5746 33.1494 64.5796 32.9367L64.5897 32.5481L64.392 32.538C64.2831 32.5313 64.1676 32.5246 64.1341 32.5213L64.0738 32.5146L64.0821 33.2499Z" fill="white"/>
<path d="M5.32649 39.8679C5.19752 39.9181 5.06017 40.0588 5.00992 40.1911C4.97809 40.2732 4.97307 40.3168 4.97809 40.4256C4.98982 40.6518 5.09199 40.8092 5.28964 40.9064C5.38847 40.9549 5.41694 40.9616 5.54424 40.9616C5.66317 40.9616 5.70169 40.9549 5.78042 40.9181C5.90102 40.8611 6.00487 40.7573 6.06182 40.6367C6.09867 40.5563 6.10537 40.5211 6.10537 40.3921C6.10537 40.2096 6.06684 40.1191 5.93787 39.9885C5.78544 39.8344 5.53922 39.7858 5.32649 39.8679Z" fill="white"/>
<path d="M61.2447 39.8662C61.1258 39.9114 61.0202 40.0086 60.9516 40.1359C60.898 40.233 60.8946 40.2514 60.8946 40.3921C60.8946 40.5194 60.9013 40.558 60.9382 40.6367C60.9951 40.7573 61.099 40.8611 61.2196 40.9181C61.2983 40.9549 61.3368 40.9616 61.4557 40.9616C61.583 40.9616 61.6115 40.9549 61.7103 40.9064C61.908 40.8092 62.0102 40.6518 62.0219 40.4256C62.0269 40.3168 62.0219 40.2732 61.9901 40.1911C61.9398 40.0555 61.8025 39.9164 61.6685 39.8679C61.5428 39.8193 61.3653 39.8193 61.2447 39.8662Z" fill="white"/>
<path d="M58.1007 43.434C58.0622 43.5211 58.0036 43.65 57.9717 43.7204L57.9148 43.851L58.0404 43.98C58.1091 44.052 58.2079 44.1592 58.2598 44.2195C58.3871 44.3669 59.5462 45.8158 59.5412 45.8208C59.5395 45.8242 58.9834 45.8711 58.3067 45.9264C57.63 45.9816 57.0371 46.0319 56.9885 46.0369L56.9014 46.047L56.7691 46.3853C56.6954 46.5712 56.6368 46.7254 56.6384 46.7254C56.6384 46.727 56.7842 46.7069 56.9584 46.6801C57.1342 46.655 57.8495 46.5796 58.5496 46.5143L59.8226 46.3937L60.6584 46.7639C61.1174 46.9682 61.4959 47.1341 61.4976 47.1307C61.5026 47.1257 61.6634 46.7639 61.7422 46.5863L61.7723 46.516L61.6852 46.4875C61.516 46.4322 61.1894 46.2965 60.6383 46.0503L60.0822 45.8007L59.5446 45.057C59.2481 44.6467 58.9265 44.1994 58.8293 44.0621C58.6451 43.8058 58.3603 43.4557 58.2414 43.3418L58.1744 43.2765L58.1007 43.434Z" fill="white"/>
<path d="M9.08685 43.8829C9.02823 43.9398 8.3532 44.2514 6.76698 44.9565C5.767 45.4004 4.94458 45.7689 4.93788 45.7756C4.93285 45.7806 4.98813 45.923 5.0635 46.0905L5.1975 46.3954L5.41693 46.2798C5.63133 46.1676 6.6648 45.7019 6.67318 45.7136C6.67653 45.7153 6.73348 45.8426 6.80048 45.995C7.04838 46.5578 7.13548 46.6985 7.38505 46.9364C7.57098 47.1156 7.7234 47.2077 7.9512 47.2848C8.30798 47.4037 8.67983 47.3769 9.0366 47.2094C9.452 47.0118 9.71498 46.7136 9.82553 46.3116C9.84898 46.2312 9.85568 46.1458 9.85568 45.9615C9.854 45.5612 9.81213 45.4255 9.4118 44.5261C9.251 44.1643 9.117 43.8678 9.11198 43.8678C9.10528 43.8678 9.09523 43.8745 9.08685 43.8829ZM9.09355 44.9783C9.28115 45.4004 9.30293 45.4758 9.30293 45.7438C9.3046 45.9381 9.2979 45.9833 9.26608 46.0704C9.16558 46.3384 8.93778 46.5511 8.62455 46.6684C8.43025 46.7404 8.16728 46.7538 7.99475 46.7019C7.777 46.6349 7.5693 46.4607 7.44703 46.2413C7.35323 46.0721 7.11538 45.5227 7.13045 45.5076C7.15893 45.4791 8.95285 44.6902 8.96458 44.7019C8.97128 44.7086 9.0299 44.8326 9.09355 44.9783Z" fill="white"/>
<path d="M55.3135 48.5612L54.2901 50.0218L54.4945 50.1775C54.605 50.263 54.7005 50.3333 54.7055 50.3333C54.7105 50.3333 54.7507 50.2713 54.7943 50.1976C54.9165 49.9933 55.4994 49.1106 55.5128 49.1106C55.5195 49.1106 56.2649 49.6298 57.1711 50.263C58.0773 50.8978 58.8377 51.4288 58.8612 51.4439L58.9047 51.4723L59.0906 51.206C59.1945 51.0586 59.2782 50.933 59.2782 50.9246C59.2782 50.9162 59.2464 50.8911 59.2079 50.8693C59.0454 50.7805 58.6987 50.5427 57.3352 49.5896C56.548 49.0385 55.8981 48.5829 55.8914 48.5762C55.8797 48.5645 56.5178 47.7069 56.6619 47.5411C56.7088 47.4841 56.749 47.4322 56.749 47.4255C56.7473 47.4138 56.4944 47.2128 56.3654 47.1207C56.3386 47.1022 56.2381 47.2396 55.3135 48.5612Z" fill="white"/>
<path d="M10.8624 47.8057C10.7619 47.8878 9.91935 48.4875 8.9914 49.1374C7.91605 49.8911 7.30802 50.3266 7.31472 50.3383C7.34655 50.3936 8.85237 52.541 8.87582 52.5644C8.90262 52.5929 8.91602 52.5862 9.12707 52.4589L9.34985 52.3216L9.29122 52.2613C9.18905 52.1524 9.11032 52.0485 8.5827 51.3149C8.10197 50.6499 8.06345 50.5913 8.08857 50.5661C8.1204 50.5343 9.3398 49.6817 9.36827 49.67C9.38 49.6667 9.59272 49.9749 9.87245 50.4003C10.1388 50.8057 10.3632 51.1424 10.3699 51.1474C10.3816 51.1541 10.854 50.876 10.854 50.8626C10.854 50.861 10.6128 50.5276 10.318 50.1223C10.0232 49.7186 9.78367 49.3836 9.78367 49.3786C9.78367 49.3652 11.0717 48.469 11.0784 48.4757C11.1153 48.5143 12.0483 49.9062 12.1337 50.0519C12.199 50.1591 12.2543 50.2445 12.2593 50.2429C12.2643 50.2395 12.3665 50.1792 12.4838 50.1072C12.6295 50.0201 12.6931 49.9715 12.6831 49.9581C12.6747 49.9481 12.3079 49.4255 11.869 48.7957C11.4285 48.1675 11.0634 47.6533 11.0567 47.6533C11.0516 47.655 10.9645 47.722 10.8624 47.8057Z" fill="white"/>
<path d="M53.1226 51.3233C53.0221 51.4439 52.925 51.5594 52.9099 51.5795C52.8814 51.6181 52.8814 51.6181 53.0623 51.7621C53.1628 51.8425 53.3002 51.9598 53.3672 52.0217C53.4359 52.0854 54.1159 52.7185 54.878 53.4287C55.6402 54.1406 56.27 54.7218 56.2783 54.7218C56.2951 54.7218 56.7323 54.2562 56.7306 54.2394C56.7306 54.2327 56.6502 54.1624 56.5514 54.0837C56.4525 54.0049 55.6887 53.3014 54.8529 52.5226C54.0154 51.742 53.327 51.1038 53.3203 51.1038C53.3119 51.1038 53.2248 51.2027 53.1226 51.3233Z" fill="white"/>
<path d="M13.6429 51.3065C13.5792 51.3802 12.859 52.0636 12.0433 52.8241C11.2275 53.5845 10.5291 54.2378 10.4905 54.2763L10.4185 54.345L10.648 54.5929L10.8775 54.8408L11.0131 54.6951C11.1605 54.5342 12.1722 53.5828 12.1957 53.5828C12.2191 53.5828 12.7719 54.1875 12.7702 54.211C12.7685 54.2227 12.6262 54.6833 12.452 55.2327L12.1371 56.231L12.395 56.489C12.5357 56.6314 12.658 56.7436 12.6647 56.7402C12.6714 56.7352 12.6814 56.6967 12.6881 56.6531C12.6948 56.6079 12.7133 56.5091 12.7317 56.4304C12.7702 56.2612 13.2828 54.5359 13.2995 54.5158C13.3062 54.5074 13.3447 54.5175 13.3849 54.5393C13.9025 54.8023 14.467 54.6917 14.8924 54.2428C15.1353 53.9848 15.2425 53.7252 15.2425 53.3919C15.2425 53.0787 15.1403 52.7872 14.9192 52.4606C14.8238 52.3199 14.7199 52.201 14.3062 51.7588C14.0801 51.5142 13.864 51.2831 13.8271 51.2429L13.7601 51.1692L13.6429 51.3065ZM14.1119 52.2445C14.2325 52.3752 14.3665 52.5309 14.4117 52.5929C14.5625 52.7973 14.6563 53.0418 14.6563 53.2311C14.6546 53.7219 14.1018 54.1858 13.6144 54.1054C13.4586 54.0803 13.256 53.9815 13.1203 53.8642C12.9896 53.752 12.5407 53.2696 12.5491 53.2495C12.5575 53.2244 13.859 52.0117 13.8774 52.01C13.8874 52.0083 13.993 52.1155 14.1119 52.2445Z" fill="white"/>
<path d="M51.4945 53.0385C51.4744 53.0519 51.3287 53.1473 51.1679 53.2495C50.7843 53.4941 50.6085 53.6297 50.4158 53.8291C50.188 54.0636 50.0641 54.2579 49.9854 54.5041C49.9117 54.7336 49.8999 54.8893 49.9401 55.1004C49.9837 55.3299 50.1076 55.551 50.2952 55.7386C50.4259 55.8692 50.5498 55.9496 50.7257 56.0183C50.858 56.0686 50.8681 56.0702 51.1294 56.0686C51.4476 56.0686 51.5515 56.0434 52.0037 55.8709C52.7441 55.5862 53.0473 55.5778 53.322 55.829C53.595 56.0786 53.6101 56.4186 53.3638 56.7855C53.1679 57.0752 52.6654 57.4823 52.2081 57.7201L52.0724 57.7905L52.1294 57.8524C52.1612 57.8859 52.2366 57.9714 52.2985 58.0417L52.4124 58.1707L52.533 58.1154C52.9434 57.9295 53.4844 57.4957 53.7709 57.1255C53.8998 56.9597 54.0523 56.6649 54.0925 56.5057C54.1745 56.1691 54.1193 55.8491 53.93 55.5644C53.8144 55.3902 53.5967 55.1908 53.4476 55.1188C53.2784 55.0367 53.0808 54.9999 52.8999 55.0133C52.6737 55.03 52.5297 55.0669 52.059 55.2243C51.5984 55.3801 51.5347 55.3969 51.3388 55.4254C51.193 55.4455 51.0138 55.4237 50.8949 55.3684C50.7726 55.3131 50.6135 55.159 50.5532 55.0384C50.4175 54.7671 50.4912 54.4957 50.776 54.2093C50.9401 54.0451 51.0959 53.9312 51.4845 53.6867C51.6202 53.5996 51.7525 53.5142 51.7776 53.4941L51.8228 53.4572L51.6888 53.2344C51.6151 53.1138 51.5498 53.0133 51.5431 53.0133C51.5364 53.0133 51.5146 53.0251 51.4945 53.0385Z" fill="white"/>
<path d="M16.7617 54.3567C16.5725 54.6934 16.3782 54.9999 15.4452 56.4387C14.8573 57.3416 14.3648 58.1003 14.3497 58.1238L14.3196 58.169L14.5675 58.3281L14.8154 58.4889L14.8455 58.427C14.931 58.2578 15.0867 58.0082 15.7584 56.9747C16.5021 55.829 16.6344 55.6213 16.7081 55.4756C16.7517 55.3902 16.7986 55.3567 16.7718 55.4287C16.7567 55.4723 16.7601 57.9998 16.7768 58.2695C16.7852 58.4253 16.7902 58.4437 16.8237 58.4588C16.8522 58.4722 17.0632 58.3851 18.0565 57.9462C18.7148 57.6548 19.363 57.36 19.4953 57.2913C19.6277 57.2226 19.7315 57.1774 19.7265 57.1908C19.7215 57.2025 19.6679 57.2762 19.6092 57.3533C19.497 57.499 17.6897 60.2712 17.6763 60.3181C17.6713 60.3348 17.7433 60.3918 17.9225 60.5073C18.0615 60.5978 18.1855 60.6732 18.1989 60.6748C18.2123 60.6748 18.2726 60.5877 18.3413 60.4688C18.4066 60.3549 18.966 59.4839 19.5841 58.5325C20.2022 57.5794 20.708 56.7955 20.708 56.7871C20.708 56.7804 20.5874 56.7034 20.44 56.618L20.172 56.4639L18.951 57.0015C18.2793 57.2963 17.6428 57.5828 17.5356 57.638C17.4284 57.6916 17.3379 57.7369 17.3346 57.7369C17.3312 57.7369 17.3296 57.3499 17.3329 56.8793C17.3346 56.4069 17.3312 55.6934 17.3245 55.293L17.3111 54.5677L17.0683 54.427C16.9343 54.35 16.8204 54.2863 16.8137 54.2863C16.807 54.2863 16.7835 54.3182 16.7617 54.3567Z" fill="white"/>
<path d="M47.6638 56.087C47.498 56.1188 47.2685 56.1959 47.0926 56.2779C46.9988 56.3215 45.7861 57.0099 45.7493 57.0401C45.7476 57.0417 45.8196 57.1523 45.9084 57.2863C45.9972 57.4203 46.5198 58.3097 47.0675 59.2594C47.6152 60.2109 48.0725 60.9931 48.0825 60.9981C48.0993 61.0048 48.6085 60.7217 48.647 60.6849C48.6554 60.6782 48.5984 60.5743 48.5197 60.4571C48.3824 60.2477 47.7375 59.1405 47.7375 59.1137C47.7375 59.107 47.9016 59.0065 48.1026 58.8909L48.4678 58.6799L49.3706 59.2142C49.8681 59.509 50.2835 59.7536 50.2952 59.7569C50.3053 59.7619 50.4527 59.6765 50.6235 59.5676L50.9334 59.37L50.6888 59.2511C50.4912 59.1556 49.6068 58.6631 48.9887 58.303L48.8748 58.2377L48.9485 58.1539C49.049 58.04 49.1545 57.834 49.1947 57.6766C49.3606 57.0317 48.9234 56.2779 48.2819 56.1037C48.1395 56.0652 47.8279 56.0568 47.6638 56.087ZM47.9603 56.6397C48.0976 56.6749 48.173 56.7185 48.2886 56.8257C48.4075 56.9345 48.5231 57.1121 48.5767 57.2679C48.6068 57.355 48.6152 57.4119 48.6152 57.5526C48.6152 57.757 48.5834 57.8575 48.4678 58.0266C48.3639 58.1791 48.2165 58.293 47.8363 58.5107L47.4963 58.7067L47.4695 58.6615C47.3857 58.5224 46.5985 57.154 46.5901 57.1339C46.5784 57.1004 47.111 56.7905 47.3104 56.7134C47.5599 56.6163 47.776 56.5912 47.9603 56.6397Z" fill="white"/>
<path d="M42.9805 58.2813C42.2669 58.5694 41.6824 58.8122 41.6824 58.8206C41.6824 58.8273 41.7075 58.8792 41.736 58.9345C41.8415 59.1405 41.9537 59.4085 42.679 61.2041C43.086 62.2125 43.4244 63.0467 43.4311 63.0567C43.4378 63.0684 43.8967 62.8909 44.7141 62.5592C45.4143 62.2745 45.9921 62.0416 46.0005 62.0383C46.0089 62.0349 45.9134 61.7217 45.8531 61.5592C45.8481 61.5442 45.7861 61.5676 45.6488 61.6363C45.426 61.7485 43.8716 62.4018 43.8582 62.3901C43.8398 62.37 43.2535 60.901 43.2636 60.8959C43.2686 60.8926 43.6471 60.7519 44.1027 60.5844C44.5583 60.4152 44.9352 60.2762 44.9386 60.2728C44.9419 60.2695 44.9051 60.1506 44.8548 60.0065C44.7744 59.7703 44.7627 59.7452 44.7309 59.7536C44.7124 59.7586 44.3322 59.9177 43.8867 60.107C43.4411 60.2963 43.0743 60.4487 43.0726 60.447C43.0626 60.437 42.4797 58.9864 42.483 58.9831C42.4998 58.9663 43.9989 58.3935 44.2083 58.3248C44.3523 58.2762 44.4712 58.231 44.4712 58.226C44.4712 58.1824 44.3138 57.7536 44.2987 57.7536C44.287 57.7553 43.694 57.9915 42.9805 58.2813Z" fill="white"/>
<path d="M24.0966 58.5526C24.0463 58.8055 23.9927 59.0015 23.6577 60.1706C23.4785 60.7954 23.321 61.3532 23.3076 61.4102C23.2674 61.5844 23.2507 61.8423 23.2674 62.0199C23.3378 62.7686 23.8537 63.2711 24.7582 63.4671C25.0078 63.5207 25.4047 63.5223 25.6175 63.4687C25.7783 63.4285 25.9994 63.3314 26.12 63.2493C26.3729 63.0751 26.5856 62.7971 26.7163 62.4721C26.7648 62.3515 27.6258 59.3784 27.6157 59.3683C27.6074 59.3599 27.0295 59.2276 27.0245 59.2326C27.0211 59.236 26.996 59.3482 26.9675 59.4856C26.9005 59.8021 26.2154 62.1857 26.1501 62.3297C25.8855 62.916 25.3562 63.1471 24.7347 62.9512C24.0882 62.7485 23.7934 62.2443 23.9341 61.581C23.9525 61.4973 24.1518 60.7854 24.378 59.9981C24.6041 59.2109 24.7833 58.5626 24.7766 58.5559C24.7632 58.5442 24.1837 58.4069 24.1468 58.4069C24.1317 58.4069 24.115 58.4571 24.0966 58.5526Z" fill="white"/>
<path d="M40.2235 59.2326L39.9689 59.2846L39.9672 59.5425C39.9655 59.8826 39.9605 59.9378 39.7545 61.4805C39.5937 62.6899 39.5551 63.0366 39.5417 63.3481L39.5384 63.457L39.458 63.2929C39.4144 63.2041 39.3374 63.0567 39.2888 62.9662C39.2051 62.8172 37.3944 59.8005 37.3776 59.7837C37.3676 59.772 36.7328 59.9378 36.7328 59.9512C36.7328 59.9579 36.8031 60.0668 36.8902 60.1941C36.9773 60.3214 37.5535 61.2577 38.1733 62.2761C38.793 63.2945 39.3022 64.1304 39.3056 64.1337C39.3139 64.1421 39.8516 64.0014 39.8684 63.9863C39.8784 63.978 40.4111 60.6129 40.4864 60.0735C40.5049 59.9445 40.525 59.6899 40.53 59.5073C40.54 59.1908 40.5384 59.1774 40.5082 59.179C40.4915 59.1807 40.3625 59.2042 40.2235 59.2326Z" fill="white"/>
<path d="M29.1651 59.9831C29.1617 60.1506 29.0914 61.035 28.9859 62.2594C28.8887 63.3599 28.81 64.2728 28.81 64.2878C28.81 64.3096 28.8569 64.318 29.1014 64.3381L29.3912 64.3615L29.4013 64.0852C29.4063 63.9327 29.4649 63.1974 29.5302 62.452C29.6274 61.3532 29.6492 61.0534 29.6441 60.8725C29.6391 60.7519 29.6408 60.6514 29.6475 60.6514C29.6525 60.6514 29.7011 60.7502 29.7564 60.8725C29.81 60.9931 30.1785 61.6731 30.5738 62.3833C30.9691 63.0935 31.4129 63.8925 31.562 64.1589L31.83 64.6429L32.098 64.6312C32.2471 64.6262 32.3694 64.6195 32.371 64.6161C32.3811 64.6078 32.7764 60.0065 32.7697 59.9981C32.7647 59.9931 32.6307 59.9864 32.4699 59.9847L32.1818 59.978L32.1717 60.3114C32.1667 60.514 32.1198 61.1254 32.0511 61.8909C31.9657 62.854 31.9389 63.2074 31.9389 63.4386C31.9389 63.6027 31.9322 63.73 31.9255 63.7233C31.9188 63.715 31.892 63.6597 31.8669 63.5994C31.8417 63.5391 31.7898 63.4269 31.7513 63.3481C31.6642 63.1723 29.7848 59.7804 29.7564 59.7502C29.743 59.7351 29.6525 59.7251 29.4532 59.7184L29.1701 59.7083L29.1651 59.9831Z" fill="white"/>
<path d="M34.9036 59.9462C34.7311 59.9713 34.5871 59.9948 34.582 59.9981C34.5787 60.0032 34.5854 60.0601 34.5971 60.1238C34.6423 60.3616 34.6725 60.6665 34.8417 62.6028C34.9355 63.6899 35.0142 64.581 35.0159 64.5843C35.0192 64.5893 35.644 64.5374 35.6708 64.529C35.6825 64.5257 35.6758 64.4386 35.649 64.2677C35.6189 64.06 35.2587 60.0735 35.2587 59.9345C35.2587 59.9144 35.2487 59.8993 35.2386 59.8993C35.2269 59.901 35.0762 59.9211 34.9036 59.9462Z" fill="white"/>
</svg>
